<svg width="91" height="39" viewBox="0 0 91 39" fill="none" xmlns="http://www.w3.org/2000/svg">
<path d="M2.016 8.296H24.256V11.848L5.792 26.632L5.408 25.448H24.256V29H2.016V25.448L20.48 10.664L20.864 11.848H2.016V8.296ZM37.568 29.384C35.5627 29.384 33.7973 29.064 32.272 28.424C30.7467 27.784 29.5573 26.8507 28.704 25.624C27.8507 24.3973 27.424 22.888 27.424 21.096C27.424 19.304 27.8507 17.784 28.704 16.536C29.5573 15.288 30.7467 14.344 32.272 13.704C33.7973 13.064 35.5627 12.744 37.568 12.744C39.5733 12.744 41.328 13.064 42.832 13.704C44.336 14.344 45.5147 15.288 46.368 16.536C47.2213 17.784 47.648 19.304 47.648 21.096C47.648 22.888 47.2213 24.3973 46.368 25.624C45.5147 26.8507 44.336 27.784 42.832 28.424C41.328 29.064 39.5733 29.384 37.568 29.384ZM37.568 26.184C38.6773 26.184 39.6747 25.9867 40.56 25.592C41.4453 25.1973 42.144 24.6213 42.656 23.864C43.168 23.1067 43.424 22.184 43.424 21.096C43.424 20.008 43.168 19.0747 42.656 18.296C42.144 17.5173 41.4507 16.9253 40.576 16.52C39.7013 16.1147 38.6987 15.912 37.568 15.912C36.4587 15.912 35.456 16.1147 34.56 16.52C33.664 16.9253 32.9547 17.512 32.432 18.28C31.9093 19.048 31.648 19.9867 31.648 21.096C31.648 22.184 31.904 23.1067 32.416 23.864C32.928 24.6213 33.632 25.1973 34.528 25.592C35.424 25.9867 36.4373 26.184 37.568 26.184ZM58.848 26.28H57.344L63.168 13.096H67.712L60.064 29H56.128L48.64 13.096H53.216L58.848 26.28ZM88.544 29H84.384V13.096H88.544V29ZM84.608 21.352L84.64 22.44C84.5973 22.7387 84.4907 23.1707 84.32 23.736C84.1493 24.3013 83.888 24.904 83.536 25.544C83.184 26.184 82.7307 26.7973 82.176 27.384C81.6213 27.9707 80.9387 28.4507 80.128 28.824C79.3173 29.1973 78.3573 29.384 77.248 29.384C76.3733 29.384 75.5147 29.2773 74.672 29.064C73.8293 28.8507 73.0667 28.4933 72.384 27.992C71.7013 27.4907 71.1573 26.8133 70.752 25.96C70.3467 25.1067 70.144 24.0293 70.144 22.728V13.096H74.304V22.024C74.304 23.048 74.4693 23.8533 74.8 24.44C75.1307 25.0267 75.616 25.4373 76.256 25.672C76.896 25.9067 77.6533 26.024 78.528 26.024C79.68 26.024 80.672 25.7733 81.504 25.272C82.336 24.7707 83.0133 24.1573 83.536 23.432C84.0587 22.7067 84.416 22.0133 84.608 21.352Z" fill="#8AD6AE"/>
</svg>
